<?xml version="1.0" encoding="UTF-8"?>
<svg version="1.1" xmlns="http://www.w3.org/2000/svg" width="500" height="500">
<path d="M0 0 C1.20205078 -0.02900391 2.40410156 -0.05800781 3.64257812 -0.08789062 C4.79822266 -0.09626953 5.95386719 -0.10464844 7.14453125 -0.11328125 C8.20647705 -0.12786377 9.26842285 -0.14244629 10.36254883 -0.1574707 C14.02351066 0.45158223 14.96113832 1.3593484 17.1875 4.3125 C18.53860823 6.9040847 19.75538693 9.44431869 20.91796875 12.1171875 C21.26608109 12.89710052 21.61419342 13.67701355 21.97285461 14.4805603 C23.11549838 17.04581803 24.24518212 19.61657092 25.375 22.1875 C26.16705816 23.97143322 26.96003916 25.75495697 27.75390625 27.53808594 C29.40345928 31.24638152 31.04811757 34.95678963 32.68896484 38.66894531 C36.28948633 46.80988134 39.92893724 54.93338089 43.56680298 63.05767822 C44.67282569 65.52970209 45.77656754 68.00273207 46.87963867 70.47607422 C47.39399727 71.62820908 47.39399727 71.62820908 47.91874695 72.80361938 C48.55605979 74.23119935 49.19275287 75.65905624 49.82868958 77.08724976 C51.21854193 80.19771729 52.65118762 83.27205854 54.1875 86.3125 C57.00049795 79.99594469 59.81203331 73.67873988 62.62255859 67.36108398 C63.57860283 65.21249696 64.53498029 63.06405817 65.49169922 60.91577148 C66.86774173 57.82574872 68.24258028 54.73519273 69.6171875 51.64453125 C70.04434052 50.68601761 70.47149353 49.72750397 70.91159058 48.73994446 C71.51198654 47.38911018 71.51198654 47.38911018 72.12451172 46.01098633 C72.65079666 44.82851067 72.65079666 44.82851067 73.18771362 43.62214661 C75.96301652 37.6471495 75.96301652 37.6471495 75.1875 31.3125 C74.30695725 29.20605966 73.3701373 27.12272535 72.39453125 25.05859375 C71.5737207 23.28258789 71.5737207 23.28258789 70.73632812 21.47070312 C69.86724662 19.60219021 68.99350544 17.73634027 68.10864258 15.87524414 C67.25238256 14.06795357 66.41688896 12.25087002 65.58203125 10.43359375 C65.07518799 9.3552124 64.56834473 8.27683105 64.04614258 7.16577148 C63.1875 4.3125 63.1875 4.3125 64.0378418 1.92993164 C64.417229 1.3961792 64.79661621 0.86242676 65.1875 0.3125 C69.15680989 0.28784119 73.12609034 0.26965977 77.09545898 0.25756836 C78.44670386 0.25252943 79.79794326 0.24569823 81.14916992 0.23706055 C83.08770434 0.22497581 85.026278 0.21980172 86.96484375 0.21484375 C88.71655884 0.20698853 88.71655884 0.20698853 90.50366211 0.19897461 C93.1875 0.3125 93.1875 0.3125 94.1875 1.3125 C93.77663768 6.90531308 92.13603689 11.2905936 89.78515625 16.33984375 C89.43575989 17.10949966 89.08636353 17.87915558 88.72637939 18.6721344 C87.57578744 21.20192035 86.41285134 23.72582897 85.25 26.25 C84.44134666 28.02300235 83.6336634 29.79644743 82.8269043 31.5703125 C81.1416453 35.27371502 79.45217768 38.97515414 77.75976562 42.67529297 C74.02353258 50.85241191 70.33736506 59.05203407 66.65158081 67.25198364 C65.53307993 69.73894745 64.41247054 72.22495028 63.29125977 74.71069336 C62.93841415 75.49391464 62.58556854 76.27713593 62.22203064 77.08409119 C61.53347128 78.61235413 60.84409098 80.14024751 60.15382385 81.66773987 C58.46759031 85.4116047 56.81633446 89.16597175 55.22021484 92.94921875 C54.9056987 93.68901978 54.59118256 94.4288208 54.26713562 95.19104004 C53.67578384 96.58739314 53.09182866 97.98691078 52.51667786 99.39001465 C51.06856388 102.80062866 50.35673473 104.19967684 47.1875 106.3125 C43.7890625 106.7890625 43.7890625 106.7890625 39.8125 106.9375 C38.50539062 107.01226562 37.19828125 107.08703125 35.8515625 107.1640625 C31.93774112 106.25445369 31.5898765 106.13023221 29.5390625 103 C28.71531937 101.45815667 27.93422391 99.89308122 27.1875 98.3125 C26.78031738 97.46220215 26.37313477 96.6119043 25.95361328 95.73583984 C24.56903724 92.73829864 23.24891112 89.71775095 21.9375 86.6875 C21.15780154 84.90958886 20.37806277 83.13169509 19.59716797 81.35430908 C19.03558104 80.07561061 18.47472663 78.79659022 17.91455078 77.51727295 C14.5823269 69.91198652 11.18170119 62.33744647 7.78451538 54.76101685 C6.68964301 52.31728315 5.59699832 49.87256612 4.50512695 47.42749023 C1.46474972 40.62041272 -1.57702152 33.81442959 -4.66848755 27.03036499 C-5.53969803 25.11724326 -6.40722049 23.20249645 -7.2734375 21.28710938 C-8.31145459 18.99461066 -9.35659502 16.70531869 -10.41015625 14.41992188 C-10.86390625 13.41380859 -11.31765625 12.40769531 -11.78515625 11.37109375 C-12.17968994 10.50798584 -12.57422363 9.64487793 -12.98071289 8.75561523 C-13.8825364 6.10678993 -14.04656924 4.09143043 -13.8125 1.3125 C-11.15702444 -1.34297556 -3.56997737 0.02843848 0 0 Z " fill="#FEFEFE" transform="translate(76.8125,179.6875)"/>
<path d="M0 0 C5.34360686 4.61311378 9.36201752 10.21513141 10.3125 17.34375 C10.62751208 23.72274464 9.01380252 28.42984713 6 34 C8.31 34.33 10.62 34.66 13 35 C13 37.64 13 40.28 13 43 C8.60845745 43.2439959 4.21670074 43.45843827 -0.17749023 43.64697266 C-1.66843016 43.71494032 -3.15904113 43.79062104 -4.64916992 43.87451172 C-14.39207445 44.41669145 -22.41174396 44.59373589 -30.3046875 38.10546875 C-35.53594 31.71605338 -38.70594245 26.07029099 -38.41015625 17.62109375 C-37.29561956 10.49867355 -33.58148471 4.53777403 -27.8828125 0.18359375 C-18.69997113 -5.5890223 -9.33680801 -5.42873039 0 0 Z M-24 11 C-26.63457795 14.54021412 -27.22911264 17.25231844 -27 21.5625 C-26.31929242 26.05517006 -24.60559648 28.16703134 -21 31 C-17.28442086 33.47705276 -14.30678823 33.65254367 -10 33 C-6.34195976 31.20548969 -4.43888108 29.60877052 -2.0625 26.3125 C-0.64281491 21.88642296 -0.59602495 18.44195496 -2 14 C-4.02288084 10.54454519 -6.35075801 8.55673142 -10.15234375 7.2734375 C-15.99496978 6.25472322 -19.36212365 7.38245645 -24 11 Z " fill="#FDFDFD" transform="translate(329,241)"/>
<path d="M0 0 C6.04184159 3.47690884 9.81288181 7.5354766 12.0703125 14.19140625 C13.67870084 21.02154852 13.34151812 26.9309955 10.0703125 33.19140625 C6.03026863 39.33882435 1.24508056 43.32737337 -5.9296875 45.19140625 C-13.72078291 46.24393001 -20.02179437 44.64519961 -26.6171875 40.50390625 C-32.06250493 35.05858882 -35.05429661 29.22721055 -35.2421875 21.50390625 C-35.15115349 14.6349762 -33.81498139 10.29575716 -29.12890625 5.25390625 C-20.27124298 -3.0017799 -10.98263388 -5.49131694 0 0 Z M-20.9296875 12.19140625 C-23.81485092 15.65360235 -24.46886615 18.67937509 -24.28125 23.19921875 C-23.50464167 27.59999927 -20.98586103 30.33504933 -17.6171875 33.06640625 C-14.13615989 34.5235806 -11.67440652 34.59262614 -7.9296875 34.19140625 C-3.82411091 32.37731427 -1.33351736 29.96885317 1.0703125 26.19140625 C2.17016084 22.15862902 2.34120691 19.95894041 0.9453125 16.00390625 C-1.44420062 12.41963657 -4.08076111 10.11586945 -7.9296875 8.19140625 C-13.62325436 7.6439479 -16.54641912 8.50547602 -20.9296875 12.19140625 Z " fill="#FDFDFD" transform="translate(181.9296875,239.80859375)"/>
<path d="M0 0 C22 0 22 0 29 4 C32.61482377 8.50189708 32.50233846 12.53847697 32.3515625 18.1171875 C31.87547989 22.0210649 30.6969168 24.15730391 28 27 C26.35165079 28.02991391 24.68704458 29.03477549 23 30 C23.69867188 30.81984375 24.39734375 31.6396875 25.1171875 32.484375 C26.03666795 33.57273961 26.95592718 34.66129115 27.875 35.75 C28.56529297 36.55824219 28.56529297 36.55824219 29.26953125 37.3828125 C31.57397948 40.12143213 33.60180463 42.6893305 35 46 C30.1139114 46.81318971 25.85029989 47.12714645 21 46 C16.88342274 42.6035313 14.42314136 37.66679076 12 33 C11.67 37.29 11.34 41.58 11 46 C7.37 46 3.74 46 0 46 C0 30.82 0 15.64 0 0 Z M11 9 C11 12.96 11 16.92 11 21 C16.44176756 21.62342981 16.44176756 21.62342981 21 19.3125 C22.17817092 16.58797975 22.45181189 14.93677726 22 12 C21.10938785 10.02421261 21.10938785 10.02421261 19 9 C16.28125957 8.75332927 13.74116148 8.86518878 11 9 Z " fill="#FDFDFD" transform="translate(200,238)"/>
<path d="M0 0 C4.85787115 -0.74630168 9.17087843 -1.02682374 14 0 C18.43836008 3.98375716 21.33160661 8.66321323 24 14 C25.98 12.35 27.96 10.7 30 9 C29.34 7.88625 28.68 6.7725 28 5.625 C26 2.25 26 2.25 26 0 C30.62 0 35.24 0 40 0 C38.875 5.625 38.875 5.625 36.05859375 7.89453125 C35.47529297 8.37470703 34.89199219 8.85488281 34.29101562 9.34960938 C33.67935547 9.83236328 33.06769531 10.31511719 32.4375 10.8125 C31.51420898 11.56563477 31.51420898 11.56563477 30.57226562 12.33398438 C29.05720915 13.56716988 27.52977263 14.78511798 26 16 C29.94071114 22.04540913 34.09138575 27.87294531 38.4609375 33.6171875 C40 36 40 36 40 39 C35.14167589 39.74637127 30.82968611 40.02586393 26 39 C22.04291005 35.49078308 19.4641926 31.70673825 17 27 C17 26.34 17 25.68 17 25 C15.02 26.32 13.04 27.64 11 29 C11.61277612 31.96175123 12.25372522 33.38058783 14 36 C14 36.99 14 37.98 14 39 C9.71 39 5.42 39 1 39 C1 35 1 35 2.57421875 33.03515625 C3.27160156 32.38417969 3.96898437 31.73320312 4.6875 31.0625 C5.71423828 30.08990234 5.71423828 30.08990234 6.76171875 29.09765625 C7.50035156 28.40542969 8.23898437 27.71320313 9 27 C10.67137474 25.33805474 12.33916079 23.67247381 14 22 C13.57589844 21.40461426 13.15179688 20.80922852 12.71484375 20.19580078 C10.80503435 17.50895081 8.90244448 14.81706913 7 12.125 C6.33226562 11.18785156 5.66453125 10.25070313 4.9765625 9.28515625 C4.34492188 8.38925781 3.71328125 7.49335938 3.0625 6.5703125 C2.47597656 5.74289551 1.88945312 4.91547852 1.28515625 4.06298828 C0 2 0 2 0 0 Z " fill="#FDFCFC" transform="translate(377,242)"/>
<path d="M0 0 C12.21 0 24.42 0 37 0 C37 3.3 37 6.6 37 10 C32.71 10 28.42 10 24 10 C24 21.88 24 33.76 24 46 C20.37 46 16.74 46 13 46 C13 34.12 13 22.24 13 10 C8.71 10 4.42 10 0 10 C0 6.7 0 3.4 0 0 Z " fill="#FEFEFE" transform="translate(234,238)"/>
<path d="M0 0 C3.63 0 7.26 0 11 0 C11 15.18 11 30.36 11 46 C7.37 46 3.74 46 0 46 C0 30.82 0 15.64 0 0 Z " fill="#FDFDFD" transform="translate(275,238)"/>
<path d="M0 0 C5.03967251 1.73048996 9.36892618 4.5267253 13.875 7.3125 C14.65230469 7.78623047 15.42960937 8.25996094 16.23046875 8.74804688 C20.9641526 11.65588124 25.51718542 14.71857973 30 18 C29.63864251 20.6164245 29.311212 21.73453252 27.26928711 23.47631836 C26.5294458 23.92628174 25.78960449 24.37624512 25.02734375 24.83984375 C24.20943359 25.34580078 23.39152344 25.85175781 22.54882812 26.37304688 C21.68708984 26.88931641 20.82535156 27.40558594 19.9375 27.9375 C19.10283203 28.44990234 18.26816406 28.96230469 17.40820312 29.49023438 C15.74886714 30.50808116 14.085321 31.51909865 12.41748047 32.52294922 C9.42904491 34.34884653 6.50715039 36.27065121 3.59594727 38.21704102 C2.80595337 38.60460571 2.80595337 38.60460571 2 39 C1.34 38.67 0.68 38.34 0 38 C-0.96065259 33.80806142 -0.96065259 33.80806142 0 31 C4.74335145 26.53375156 10.41744765 23.30666721 16 20 C13.33565953 17.0375515 10.19801548 15.04496914 6.875 12.875 C1.08333333 9.08333333 1.08333333 9.08333333 0 8 C-0.14115161 5.32941149 -0.04247107 2.67567762 0 0 Z " fill="#BC6735" transform="translate(421,245)"/>
<path d="M0 0 C2 2 2 2 2.41796875 4.890625 C2 8 2 8 -0.01171875 10.046875 C-0.89472656 10.60890625 -1.77773438 11.1709375 -2.6875 11.75 C-3.55761719 12.32234375 -4.42773438 12.8946875 -5.32421875 13.484375 C-7.83419889 14.90608638 -10.2959656 16.00608465 -13 17 C-13 18.32 -13 19.64 -13 21 C-10.10451307 23.0884867 -7.17208479 24.81600236 -4.06445312 26.55664062 C0.76920471 29.41717454 0.76920471 29.41717454 2.00390625 32.53515625 C2.00016414 34.89642759 1.74482503 36.76552491 1 39 C-8.13602144 34.32752334 -16.53645765 28.76682543 -25 23 C-25.99 22.34 -26.98 21.68 -28 21 C-27.63864251 18.3835755 -27.311212 17.26546748 -25.26928711 15.52368164 C-24.5294458 15.07371826 -23.78960449 14.62375488 -23.02734375 14.16015625 C-22.20943359 13.65419922 -21.39152344 13.14824219 -20.54882812 12.62695312 C-19.2562207 11.85254883 -19.2562207 11.85254883 -17.9375 11.0625 C-17.10283203 10.55009766 -16.26816406 10.03769531 -15.40820312 9.50976562 C-13.75018645 8.49272812 -12.08924705 7.48043863 -10.42529297 6.47314453 C-6.9287189 4.34929432 -3.46489493 2.17507277 0 0 Z " fill="#BA6A39" transform="translate(372,245)"/>
<path d="M0 0 C0.556875 0.226875 1.11375 0.45375 1.6875 0.6875 C2.0625 2.9375 2.0625 2.9375 1.6875 5.6875 C-1.48420047 8.48161708 -3.44890336 9.62352988 -7.6875 9.9375 C-8.55375 9.855 -9.42 9.7725 -10.3125 9.6875 C-9.9825 8.0375 -9.6525 6.3875 -9.3125 4.6875 C-8.6525 4.6875 -7.9925 4.6875 -7.3125 4.6875 C-7.3125 4.0275 -7.3125 3.3675 -7.3125 2.6875 C-3.15982824 -0.42700382 -3.15982824 -0.42700382 0 0 Z " fill="#C06A36" transform="translate(370.3125,249.3125)"/>
<path d="M0 0 C1.77433812 0.93084971 3.54435149 1.86994613 5.3125 2.8125 C6.79169922 3.59560547 6.79169922 3.59560547 8.30078125 4.39453125 C10.61665068 5.7719876 12.23611001 6.99530591 14 9 C12.02 9 10.04 9 8 9 C7.67 8.01 7.34 7.02 7 6 C3.99152582 4.77479736 3.99152582 4.77479736 1 4 C0.67 5.32 0.34 6.64 0 8 C-4.875 6.25 -4.875 6.25 -6 4 C-3.03 4.495 -3.03 4.495 0 5 C-0.2784375 4.0409375 -0.2784375 4.0409375 -0.5625 3.0625 C-0.706875 2.381875 -0.85125 1.70125 -1 1 C-0.67 0.67 -0.34 0.34 0 0 Z " fill="#AE6939" transform="translate(358,266)"/>
<path d="M0 0 C4.31392226 0.4793247 6.16569547 1.7457985 9 5 C8.67 5.66 8.34 6.32 8 7 C6 6 6 6 5 3 C2.49552484 1.78130071 2.49552484 1.78130071 0 1 C0 0.67 0 0.34 0 0 Z M0 7 C1.98 7 3.96 7 6 7 C6.99 8.98 7.98 10.96 9 13 C6 13 6 13 4.5 11.6875 C4.005 11.130625 3.51 10.57375 3 10 C2.443125 9.443125 1.88625 8.88625 1.3125 8.3125 C0.879375 7.879375 0.44625 7.44625 0 7 Z " fill="#AD5E35" transform="translate(431,252)"/>
<path d="M0 0 C0.99 0.33 1.98 0.66 3 1 C2.67 1.33 2.34 1.66 2 2 C3.32 2.66 4.64 3.32 6 4 C6 4.66 6 5.32 6 6 C6.66 6.33 7.32 6.66 8 7 C7.01 7.99 6.02 8.98 5 10 C5 9.34 5 8.68 5 8 C3.35 7.67 1.7 7.34 0 7 C-1.125 2.25 -1.125 2.25 0 0 Z " fill="#C16831" transform="translate(430,251)"/>
<path d="M0 0 C1.48754006 0.73325207 2.96486192 1.48726078 4.4375 2.25 C5.67306641 2.87648438 5.67306641 2.87648438 6.93359375 3.515625 C9 5 9 5 9.78515625 7.171875 C9.85605469 7.77515625 9.92695313 8.3784375 10 9 C6.84012675 9 5.63965207 8.61785127 3 7 C2.34 6.01 1.68 5.02 1 4 C1.33 3.34 1.66 2.68 2 2 C1.34 2 0.68 2 0 2 C0 1.34 0 0.68 0 0 Z " fill="#B1673A" transform="translate(441,257)"/>
<path d="M0 0 C1.65 0.33 3.3 0.66 5 1 C5.33 2.32 5.66 3.64 6 5 C3 6 3 6 0.8125 5.0625 C0.214375 4.711875 -0.38375 4.36125 -1 4 C-0.67 2.68 -0.34 1.36 0 0 Z " fill="#C06B33" transform="translate(367,274)"/>
<path d="M0 0 C4.75 0.75 4.75 0.75 7 3 C6.67 3.66 6.34 4.32 6 5 C3.5 5.6875 3.5 5.6875 1 6 C0 5 0 5 -0.0625 2.4375 C-0.041875 1.633125 -0.02125 0.82875 0 0 Z " fill="#BD6633" transform="translate(423,247)"/>
<path d="M0 0 C2 2 2 2 2.125 5.125 C2.08375 6.07375 2.0425 7.0225 2 8 C1.01 8.495 1.01 8.495 0 9 C-0.33 7.68 -0.66 6.36 -1 5 C-3.31 5.33 -5.62 5.66 -8 6 C-5.38485683 3.87961365 -2.80362384 1.86908256 0 0 Z " fill="#AC774C" transform="translate(372,245)"/>
<path d="M0 0 C0.66 0.33 1.32 0.66 2 1 C2 3.31 2 5.62 2 8 C-1.57575896 8 -3.05295935 6.91159393 -6 5 C-3.92446352 4.4465236 -2.15634036 4 0 4 C0 2.68 0 1.36 0 0 Z " fill="#A96740" transform="translate(372,275)"/>
<path d="M0 0 C1.32 0 2.64 0 4 0 C4.625 1.8125 4.625 1.8125 5 4 C4.01 5.485 4.01 5.485 3 7 C1.68 6.34 0.36 5.68 -1 5 C-0.34 4.34 0.32 3.68 1 3 C0.67 2.01 0.34 1.02 0 0 Z " fill="#B85A25" transform="translate(354,260)"/>
<path d="M0 0 C1.32 0 2.64 0 4 0 C4 0.66 4 1.32 4 2 C4.66 2.66 5.32 3.32 6 4 C3 6 3 6 0 6 C0 4.02 0 2.04 0 0 Z " fill="#B36535" transform="translate(425,275)"/>
<path d="M0 0 C0.99 0.33 1.98 0.66 3 1 C2.979375 1.928125 2.95875 2.85625 2.9375 3.8125 C2.84230396 7.02286011 2.84230396 7.02286011 4 10 C2.68 9.34 1.36 8.68 0 8 C0 5.36 0 2.72 0 0 Z " fill="#B07851" transform="translate(421,245)"/>
<path d="M0 0 C1.23367942 2.46735884 1 4.26809601 1 7 C1.33 7.66 1.66 8.32 2 9 C1.01 9.33 0.02 9.66 -1 10 C-2 9 -2 9 -2.1875 5.5625 C-2 2 -2 2 0 0 Z " fill="#AC7451" transform="translate(423,274)"/>
<path d="M0 0 C-0.33 0.99 -0.66 1.98 -1 3 C-2.32 3 -3.64 3 -5 3 C-5 3.66 -5 4.32 -5 5 C-6.32 4.67 -7.64 4.34 -9 4 C-2.25 0 -2.25 0 0 0 Z " fill="#AC6B3F" transform="translate(438,266)"/>
<path d="" fill="#FFFF55" transform="translate(0,0)"/>
</svg>
